<svg width="160" height="200" viewBox="0 0 160 200" fill="none" xmlns="http://www.w3.org/2000/svg">
  <defs>
    <linearGradient id="bg" x1="20" y1="12" x2="140" y2="188" gradientUnits="userSpaceOnUse">
      <stop stop-color="#172554"/>
      <stop offset="0.55" stop-color="#0F172A"/>
      <stop offset="1" stop-color="#050816"/>
    </linearGradient>
    <radialGradient id="halo" cx="0" cy="0" r="1" gradientUnits="userSpaceOnUse" gradientTransform="translate(80 64) rotate(90) scale(66 60)">
      <stop stop-color="#FBBF24" stop-opacity="0.9"/>
      <stop offset="0.55" stop-color="#F59E0B" stop-opacity="0.22"/>
      <stop offset="1" stop-color="#F59E0B" stop-opacity="0"/>
    </radialGradient>
    <linearGradient id="coat" x1="80" y1="110" x2="80" y2="180" gradientUnits="userSpaceOnUse">
      <stop stop-color="#16A34A"/>
      <stop offset="1" stop-color="#064E3B"/>
    </linearGradient>
    <linearGradient id="book" x1="48" y1="138" x2="112" y2="178" gradientUnits="userSpaceOnUse">
      <stop stop-color="#FCD34D"/>
      <stop offset="1" stop-color="#F97316"/>
    </linearGradient>
    <linearGradient id="page" x1="58" y1="145" x2="102" y2="170" gradientUnits="userSpaceOnUse">
      <stop stop-color="#FFFDF6"/>
      <stop offset="1" stop-color="#FEF3C7"/>
    </linearGradient>
  </defs>

  <rect x="8" y="8" width="144" height="184" rx="34" fill="url(#bg)"/>
  <rect x="8.75" y="8.75" width="142.5" height="182.5" rx="33.25" stroke="rgba(255,255,255,0.12)"/>
  <ellipse cx="80" cy="62" rx="48" ry="42" fill="url(#halo)"/>
  <path d="M44 170C46.5 133.5 61.5 113 80 113C98.5 113 113.5 133.5 116 170V180H44V170Z" fill="url(#coat)"/>
  <path d="M58 110L80 126L102 110L110 132H50L58 110Z" fill="#0B1120" fill-opacity="0.95"/>
  <circle cx="80" cy="77" r="27" fill="#F2C8A8"/>
  <path d="M54 78C54 57.8 66.1 42 81.5 42C97.3 42 108 55.8 108 77.5V84H54V78Z" fill="#111827"/>
  <path d="M64 74C67.6 69.1 73.3 66 80 66C86.7 66 92.4 69.1 96 74" stroke="#6EE7B7" stroke-width="3" stroke-linecap="round" opacity="0.5"/>
  <circle cx="70" cy="78" r="2.8" fill="#0F172A"/>
  <circle cx="90" cy="78" r="2.8" fill="#0F172A"/>
  <path d="M73 90C76.5 93.2 83.5 93.2 87 90" stroke="#9A3412" stroke-width="3" stroke-linecap="round"/>
  <path d="M60 115C66.4 123.7 72.7 128 80 128C87.3 128 93.6 123.7 100 115" stroke="#F8FAFC" stroke-width="5" stroke-linecap="round" opacity="0.9"/>
  <path d="M49 145L80 136L111 145V174H49V145Z" fill="url(#book)"/>
  <path d="M80 136V174" stroke="#78350F" stroke-width="3" stroke-linecap="round"/>
  <path d="M56 149.5C63 146 71.4 144.9 80 146.3V170C72.2 168.3 64.1 168.2 56 170V149.5Z" fill="url(#page)"/>
  <path d="M104 149.5C97 146 88.6 144.9 80 146.3V170C87.8 168.3 95.9 168.2 104 170V149.5Z" fill="url(#page)"/>
  <path d="M40 28C50.4 22.6 62.4 20 76 20C109.1 20 132 33.3 132 52.5C132 55.7 131.3 58.8 130 61.8C122.8 47.1 103.8 37.4 78.5 37.4C63.8 37.4 50.6 40.7 40 46.8V28Z" fill="white" fill-opacity="0.05"/>
  <circle cx="111" cy="48" r="5" fill="#FCD34D" fill-opacity="0.75"/>
  <circle cx="121" cy="58" r="2.5" fill="#FDE68A" fill-opacity="0.7"/>
  <circle cx="49" cy="61" r="3" fill="#6EE7B7" fill-opacity="0.45"/>
</svg>
